<svg width="70" height="48" viewBox="0 0 70 48" fill="none" xmlns="http://www.w3.org/2000/svg">
<rect x="0.5" y="0.5" width="69" height="47" rx="5.5" fill="white" stroke="#D9D9D9"/>
<path fill-rule="evenodd" clip-rule="evenodd" d="M33.0603 31.5169V25.475H36.1786C37.4564 25.475 38.535 25.0468 39.4142 24.2024L39.6252 23.9883C41.2313 22.24 41.1258 19.5163 39.4142 17.8988C38.5584 17.0425 37.3861 16.5786 36.1786 16.6024H31.1729V31.5169H33.0603ZM33.0605 23.6434V18.434H36.2262C36.9063 18.434 37.5512 18.6957 38.0319 19.1714C39.052 20.1705 39.0754 21.8356 38.0905 22.8703C37.6098 23.3817 36.9297 23.6672 36.2262 23.6434H33.0605ZM48.4293 22.1091C47.6204 21.3599 46.5185 20.9793 45.1234 20.9793C43.3298 20.9793 41.9816 21.6453 41.0906 22.9655L42.7553 24.024C43.3649 23.1201 44.1973 22.6681 45.2524 22.6681C45.9206 22.6681 46.5653 22.9179 47.0694 23.3699C47.5618 23.798 47.8432 24.4165 47.8432 25.0706V25.5107C47.1163 25.1063 46.2019 24.8922 45.0765 24.8922C43.7635 24.8922 42.7084 25.2015 41.923 25.8318C41.1375 26.4622 40.739 27.2947 40.739 28.3532C40.7155 29.3166 41.1258 30.2324 41.8527 30.8509C42.5912 31.5169 43.5291 31.8499 44.631 31.8499C45.9323 31.8499 46.9639 31.2672 47.7494 30.1016H47.8314V31.5169H49.6368V25.2252C49.6368 23.9051 49.2382 22.8584 48.4293 22.1091ZM43.3066 29.6377C42.9197 29.3523 42.6852 28.8884 42.6852 28.3889C42.6852 27.8299 42.9432 27.3661 43.4473 26.9974C43.9632 26.6287 44.6081 26.4384 45.3702 26.4384C46.4255 26.4265 47.2462 26.6644 47.8325 27.1401C47.8325 27.9489 47.5159 28.6506 46.8945 29.2453C46.3317 29.8161 45.5696 30.1373 44.7723 30.1373C44.2446 30.1492 43.7287 29.9708 43.3066 29.6377ZM53.693 36.0008L60.0001 21.3123H57.9485L55.0295 28.6387H54.9943L52.0049 21.3123H49.9534L54.0916 30.8628L51.747 36.0008H53.693Z" fill="#3C4043"/>
<path d="M26.5443 24.1661C26.5443 23.5834 26.4974 23.0006 26.4036 22.4297H18.4436V25.7242H23.0039C22.8163 26.7827 22.2067 27.7342 21.3158 28.3289V30.4697H24.0355C25.6299 28.983 26.5443 26.7827 26.5443 24.1661Z" fill="#4285F4"/>
<path d="M18.444 32.5392C20.7183 32.5392 22.6408 31.778 24.0359 30.4697L21.3161 28.3289C20.5541 28.8522 19.5811 29.1496 18.444 29.1496C16.24 29.1496 14.376 27.6391 13.7078 25.6172H10.906V27.8294C12.3362 30.7195 15.2553 32.5392 18.444 32.5392Z" fill="#34A853"/>
<path d="M13.708 25.6177C13.3563 24.5592 13.3563 23.4055 13.708 22.3351V20.1348H10.9058C9.69808 22.5492 9.69808 25.4036 10.9058 27.818L13.708 25.6177Z" fill="#FBBC04"/>
<path d="M18.444 18.8023C19.6515 18.7785 20.812 19.2423 21.6795 20.0868L24.0945 17.6367C22.5588 16.1857 20.5424 15.3888 18.444 15.4126C15.2553 15.4126 12.3362 17.2442 10.906 20.1344L13.7078 22.3466C14.376 20.3128 16.24 18.8023 18.444 18.8023Z" fill="#EA4335"/>
</svg>
