<svg width="70" height="48" viewBox="0 0 70 48" fill="none" xmlns="http://www.w3.org/2000/svg">
<rect x="0.5" y="0.5" width="69" height="47" rx="5.5" fill="white" stroke="#D9D9D9"/>
<path fill-rule="evenodd" clip-rule="evenodd" d="M35.3948 34.7621C33.0116 36.8187 29.9203 38.0602 26.5423 38.0602C19.005 38.0602 12.8948 31.879 12.8948 24.2542C12.8948 16.6294 19.005 10.4482 26.5423 10.4482C29.9203 10.4482 33.0116 11.6897 35.3948 13.7463C37.7779 11.6897 40.8693 10.4482 44.2472 10.4482C51.7846 10.4482 57.8948 16.6294 57.8948 24.2542C57.8948 31.879 51.7846 38.0602 44.2472 38.0602C40.8693 38.0602 37.7779 36.8187 35.3948 34.7621Z" fill="#ED0006"/>
<path fill-rule="evenodd" clip-rule="evenodd" d="M35.3948 34.7621C38.3292 32.2299 40.1899 28.4618 40.1899 24.2542C40.1899 20.0466 38.3292 16.2786 35.3948 13.7463C37.7779 11.6897 40.8693 10.4482 44.2472 10.4482C51.7846 10.4482 57.8948 16.6294 57.8948 24.2542C57.8948 31.879 51.7846 38.0602 44.2472 38.0602C40.8693 38.0602 37.7779 36.8187 35.3948 34.7621Z" fill="#F9A000"/>
<path fill-rule="evenodd" clip-rule="evenodd" d="M35.3949 13.7461C38.3292 16.2784 40.1899 20.0463 40.1899 24.254C40.1899 28.4616 38.3292 32.2295 35.3949 34.7618C32.4605 32.2295 30.5999 28.4616 30.5999 24.254C30.5999 20.0463 32.4605 16.2784 35.3949 13.7461Z" fill="#FF5E00"/>
</svg>
