<svg width="48" height="48" viewBox="0 0 48 48" fill="none" xmlns="http://www.w3.org/2000/svg">
<circle cx="24" cy="24" r="24" fill="#7294C7"/>
<path d="M35.7675 30.1381C35.7675 30.0385 35.6678 30.0385 35.6678 29.9389C35.2693 29.1418 34.3727 28.1456 33.1771 27.0497C32.5794 26.5515 32.2805 26.153 32.0812 25.9538C31.7824 25.5552 31.7824 25.2564 31.882 24.8579C31.9816 24.559 32.3801 24.0608 33.0775 23.1642C33.476 22.666 33.6753 22.3672 33.9742 22.0683C35.4686 20.0757 36.166 18.7806 35.9667 18.1828L35.8671 18.0832C35.7675 17.9836 35.6678 17.8839 35.4686 17.8839C35.2693 17.7843 34.9704 17.7843 34.6716 17.8839H30.8857C30.7861 17.8839 30.7861 17.8839 30.5868 17.8839C30.4872 17.8839 30.3876 17.8839 30.3876 17.8839H30.288H30.1883L30.0887 17.9836C29.9891 18.0832 29.9891 18.0832 29.9891 18.1828C29.5905 19.2787 29.0924 20.1754 28.5943 21.1716C28.2954 21.6698 27.9965 22.1679 27.6976 22.5664C27.3987 22.9649 27.1995 23.2638 27.0002 23.4631C26.801 23.6623 26.6017 23.762 26.5021 23.9612C26.4025 24.0608 26.2032 24.1605 26.2032 24.0608C26.1036 24.0608 26.004 24.0608 26.004 23.9612C25.9043 23.8616 25.8047 23.7619 25.7051 23.6623C25.6055 23.5627 25.6054 23.3634 25.5058 23.1642C25.5058 22.9649 25.5058 22.7657 25.5058 22.666C25.5058 22.5664 25.5058 22.2675 25.5058 22.0683C25.5058 21.7694 25.5058 21.5701 25.5058 21.4705C25.5058 21.1716 25.5058 20.7731 25.5058 20.3746C25.5058 19.9761 25.5058 19.6772 25.5058 19.478C25.5058 19.2787 25.5058 18.9798 25.5058 18.7806C25.5058 18.4817 25.5058 18.2824 25.5058 18.1828C25.5058 18.0832 25.4062 17.8839 25.4062 17.7843C25.3066 17.6847 25.2069 17.585 25.1073 17.4854C25.0077 17.3858 24.8084 17.3858 24.7088 17.2862C24.2107 17.1865 23.6129 17.0869 22.9155 17.0869C21.3215 17.0869 20.2256 17.1865 19.8271 17.3858C19.6278 17.4854 19.4286 17.585 19.3289 17.7843C19.1297 17.9836 19.1297 18.0832 19.2293 18.0832C19.7274 18.1828 20.1259 18.3821 20.3252 18.6809L20.4248 18.8802C20.5245 18.9798 20.5244 19.1791 20.6241 19.478C20.7237 19.7769 20.7237 20.0757 20.7237 20.4742C20.7237 21.072 20.7237 21.6698 20.7237 22.0683C20.7237 22.5664 20.6241 22.8653 20.6241 23.1642C20.6241 23.4631 20.5245 23.6623 20.4248 23.762C20.3252 23.9612 20.3252 24.0608 20.2256 24.0608C20.2256 24.0608 20.2256 24.1605 20.1259 24.1605C20.0263 24.1605 19.9267 24.2601 19.7274 24.2601C19.6278 24.2601 19.4286 24.1605 19.3289 24.0608C19.1297 23.9612 18.9304 23.762 18.8308 23.5627C18.6315 23.3634 18.4323 23.0646 18.233 22.666C18.0338 22.2675 17.7349 21.869 17.5356 21.2713L17.3364 20.8728C17.2367 20.6735 17.0375 20.275 16.8382 19.7769C16.639 19.2787 16.4397 18.8802 16.2405 18.3821C16.1408 18.1828 16.0412 18.0832 15.9416 17.9836H15.842C15.842 17.9836 15.7423 17.8839 15.6427 17.8839C15.5431 17.8839 15.4435 17.7843 15.3438 17.7843H11.7572C11.3587 17.7843 11.1595 17.8839 11.0598 17.9836L10.9602 18.0832C10.9602 18.0832 10.9602 18.1828 10.9602 18.2824C10.9602 18.3821 10.9602 18.4817 11.0598 18.6809C11.558 19.8765 12.1557 21.072 12.7535 22.2675C13.3513 23.3634 13.949 24.3597 14.3475 25.0571C14.8457 25.7545 15.2442 26.4519 15.7423 27.0497C16.2405 27.6474 16.5393 28.0459 16.639 28.2452C16.8382 28.4444 16.9378 28.5441 17.0375 28.6437L17.3364 28.9426C17.5356 29.1418 17.8345 29.4407 18.233 29.7396C18.6315 30.0385 19.1297 30.3374 19.6278 30.6362C20.1259 30.9351 20.7237 31.1344 21.3215 31.3337C22.0189 31.5329 22.6166 31.6325 23.2144 31.5329H24.7088C25.0077 31.5329 25.207 31.4333 25.4062 31.234L25.5058 31.1344C25.5058 31.0348 25.6054 31.0348 25.6054 30.9351C25.6054 30.8355 25.6054 30.7359 25.6054 30.5366C25.6054 30.1381 25.6055 29.8392 25.7051 29.5404C25.8047 29.2415 25.8047 29.0422 25.9043 28.843C26.004 28.6437 26.1036 28.5441 26.2032 28.4444C26.3028 28.3448 26.4025 28.2452 26.4025 28.2452H26.5021C26.7013 28.1456 27.0002 28.2452 27.1995 28.4444C27.4984 28.6437 27.7972 28.9426 27.9965 29.2415C28.1958 29.5404 28.4947 29.8392 28.8932 30.2377C29.2917 30.6363 29.5906 30.9351 29.7898 31.0348L30.0887 31.234C30.2879 31.3336 30.4872 31.4333 30.7861 31.5329C31.085 31.6325 31.2842 31.6325 31.4835 31.6325L34.8708 31.5329C35.1697 31.5329 35.4686 31.4333 35.6678 31.3337C35.8671 31.234 35.9667 31.1344 35.9667 30.9351C35.9667 30.8355 35.9667 30.6363 35.9667 30.5366C35.7674 30.3374 35.7675 30.2377 35.7675 30.1381Z" fill="white"/>
</svg>
